<?xml version="1.0" standalone="no"?>
<!DOCTYPE svg PUBLIC "-//W3C//DTD SVG 20010904//EN"
 "http://www.w3.org/TR/2001/REC-SVG-20010904/DTD/svg10.dtd">
<svg version="1.0" xmlns="http://www.w3.org/2000/svg"
 width="260.000000pt" height="260.000000pt" viewBox="0 0 260.000000 260.000000"
 preserveAspectRatio="xMidYMid meet">
<metadata>
Created by potrace 1.14, written by Peter Selinger 2001-2017
</metadata>
<g transform="translate(0.000000,260.000000) scale(0.100000,-0.100000)"
fill="#000000" stroke="none">
<path d="M1106 1598 c-6 -4 -70 -6 -141 -5 -115 1 -136 -1 -180 -21 -169 -77
-276 -343 -163 -403 52 -28 121 -12 152 35 16 25 15 27 -5 43 -46 38 -59 58
-59 91 0 47 14 69 61 92 34 18 61 21 192 23 167 2 186 8 211 62 8 16 16 43 18
59 3 27 1 29 -35 30 -21 0 -44 -2 -51 -6z"/>
<path d="M1624 1588 c-234 -24 -415 -218 -350 -373 8 -18 23 -38 34 -44 42
-22 172 8 186 44 3 8 -10 25 -29 39 -31 24 -34 30 -31 75 2 26 12 61 22 77 47
72 161 138 236 136 108 -3 178 -121 142 -241 -14 -47 -54 -91 -83 -91 -20 0 8
144 37 188 21 32 25 62 9 63 -84 10 -145 -10 -191 -61 -57 -63 -82 -129 -101
-265 -1 -11 -6 -42 -9 -70 -10 -67 -34 -151 -57 -197 -19 -37 -56 -78 -70 -78
-14 0 -22 45 -20 108 l2 62 -48 0 c-50 0 -116 -28 -140 -59 -21 -27 -1 -112
31 -133 6 -4 78 -8 160 -8 134 0 152 2 187 22 22 12 39 25 39 30 0 4 5 8 10 8
6 0 10 -8 10 -18 0 -36 20 -42 149 -42 141 0 166 9 215 72 41 55 55 98 52 166
-4 77 -37 132 -99 163 l-42 22 46 21 c85 39 125 86 135 159 8 59 -21 125 -72
163 -22 16 -42 33 -45 37 -3 5 -10 8 -15 7 -5 0 -29 4 -54 10 -61 14 -160 18
-246 8z m136 -438 c27 -15 39 -62 35 -142 -4 -79 -29 -178 -46 -178 -6 0 -8 4
-5 9 14 22 -24 43 -87 50 -4 1 -1 11 8 24 23 35 53 129 60 191 8 61 8 61 35
46z"/>
<path d="M973 1390 c-41 -4 -57 -11 -77 -35 -32 -36 -63 -116 -72 -182 -5 -44
-10 -50 -54 -77 -44 -27 -56 -42 -73 -97 -8 -23 32 -30 73 -13 l31 13 -7 -37
c-10 -59 -45 -131 -72 -153 -26 -20 -26 -20 -46 0 -14 14 -21 38 -24 81 l-4
60 -49 0 c-42 0 -55 -5 -89 -36 -50 -46 -52 -74 -6 -120 l34 -34 152 0 c139 0
155 2 183 22 75 51 127 136 148 240 l12 58 53 17 c67 21 81 36 86 96 l5 47
-43 0 c-24 0 -45 -4 -48 -9 -3 -5 -15 -11 -26 -14 -19 -5 -20 -2 -16 58 3 35
10 73 15 84 21 39 15 41 -86 31z"/>
</g>
</svg>
